<?xml version="1.0" encoding="iso-8859-1"?>
<!-- Generator: Adobe Illustrator 19.0.0, SVG Export Plug-In . SVG Version: 6.00 Build 0)  -->
<svg version="1.1" id="Capa_1" xmlns="http://www.w3.org/2000/svg" xmlns:xlink="http://www.w3.org/1999/xlink" x="0px" y="0px"
	 viewBox="0 0 479.969 479.969" style="enable-background:new 0 0 479.969 479.969;" xml:space="preserve">
<g>
	<g>
		<path d="M396.169,34.38c-0.535,0-1.069,0.055-1.594,0.162c-52.133,10.676-106.375,1.062-151.664-26.88l-10.552-6.48
			c-2.567-1.575-5.801-1.575-8.368,0l-10.552,6.48c-45.293,27.931-99.535,37.533-151.664,26.848
			c-4.329-0.884-8.555,1.909-9.438,6.238c-0.109,0.535-0.163,1.08-0.162,1.626v245.92c-0.014,31.604,8.392,62.642,24.352,89.92
			c18.275,31.421,46.071,56.213,79.368,70.792l69.08,30.296c2.04,0.891,4.36,0.891,6.4,0l69.104-30.296
			c3.888-1.704,7.712-3.552,11.44-5.528c3.904-2.072,5.388-6.916,3.316-10.82c-2.072-3.904-6.916-5.388-10.82-3.316
			c-3.381,1.792-6.835,3.461-10.36,5.008l-65.88,28.888l-65.856-28.864c-30.21-13.237-55.425-35.741-72-64.256
			c-14.524-24.833-22.168-53.088-22.144-81.856V51.933c53.22,8.5,107.723-2.38,153.6-30.664l6.4-3.912l6.4,3.904
			c45.871,28.298,100.379,39.182,153.6,30.672v236.328c0,4.418,3.582,8,8,8s8-3.582,8-8V42.373
			C404.172,37.955,400.588,34.376,396.169,34.38z"/>
	</g>
</g>
<g>
	<g>
		<path d="M227.593,60.059c-2.064-3.907-6.904-5.401-10.81-3.337c-0.207,0.109-0.41,0.228-0.607,0.355
			c-36.902,21.617-80.438,28.99-122.4,20.728c-4.329-0.884-8.555,1.909-9.438,6.238c-0.108,0.53-0.162,1.069-0.162,1.61v191.12
			c0.015,25.044,6.968,49.595,20.088,70.928c15.321,24.978,38.148,44.473,65.216,55.696c4.076,1.708,8.764-0.212,10.472-4.288
			c1.708-4.076-0.212-8.764-4.288-10.472c-23.972-9.93-44.19-27.188-57.76-49.304c-11.573-18.816-17.709-40.47-17.728-62.56V95.125
			c42.914,6.239,86.674-2.316,124.08-24.256C228.162,68.806,229.656,63.966,227.593,60.059z"/>
	</g>
</g>
<g>
	<g>
		<path d="M425.041,402.343c-2.998-2.605-7.454-2.617-10.465-0.026l-38.256,38.256c-2.667-0.8-5.509-0.8-8.176,0l-70.256-70.256
			c-3.178-3.069-8.243-2.981-11.312,0.197c-2.994,3.1-2.994,8.015,0,11.115l70.248,70.256c-2.369,8.398,2.52,17.127,10.918,19.495
			c1.442,0.407,2.935,0.606,4.434,0.593c8.837,0,16-7.163,16-16c-0.019-1.383-0.221-2.758-0.6-4.088l38.256-38.256
			C428.73,410.294,428.376,405.241,425.041,402.343z"/>
	</g>
</g>
<g>
	<g>
		<path d="M353.832,178.317l-32-32c-3.124-3.123-8.188-3.123-11.312,0l-98.344,98.344l-26.344-26.344
			c-3.124-3.123-8.188-3.123-11.312,0l-32,32c-3.123,3.124-3.123,8.188,0,11.312l64,64c1.5,1.5,3.534,2.344,5.656,2.344
			c2.122,0,4.156-0.844,5.656-2.344l136-136C356.955,186.505,356.955,181.441,353.832,178.317z M212.176,308.661l-52.656-52.688
			l20.656-20.688l26.4,26.344c3.124,3.123,8.188,3.123,11.312,0l98.288-98.344l20.72,20.688L212.176,308.661z"/>
	</g>
</g>
<g>
</g>
<g>
</g>
<g>
</g>
<g>
</g>
<g>
</g>
<g>
</g>
<g>
</g>
<g>
</g>
<g>
</g>
<g>
</g>
<g>
</g>
<g>
</g>
<g>
</g>
<g>
</g>
<g>
</g>
</svg>
